# xmcd
#
# Track frame offsets: 
#        150
#        13036
#        33107
#        46743
#        67696
#        85300
#        98826
#        113565
#        123872
#        145359
#
# Disc length: 2117 seconds
#
# Revision: 0
# Processed by: cddbd v1.5.2PL0 Copyright (c) Steve Scherf et al.
# Submitted via: ExactAudioCopyFreeDBPlugin 1.0
#
DISCID=7108430a
DTITLE=Special Consensus - Long I Ride
DYEAR=2016
DGENRE=Bluegrass
TTITLE0=Long I Ride
TTITLE1=Life Stories
TTITLE2=Highway 40 Blues
TTITLE3=New Shenandoah
TTITLE4=First One to Know
TTITLE5=Firewall
TTITLE6=Where the Wild River Rolls
TTITLE7=Jesus Is My Rock
TTITLE8=Baby I'm Blue
TTITLE9=Time for Movin' On
EXTD=
EXTT0=
EXTT1=
EXTT2=
EXTT3=
EXTT4=
EXTT5=
EXTT6=
EXTT7=
EXTT8=
EXTT9=
PLAYORDER=
